<svg width="18" height="18" viewBox="0 0 18 18" fill="none" xmlns="http://www.w3.org/2000/svg">
<path d="M10.7926 11.7375H2.99869C2.67394 11.7375 2.38528 11.5125 2.31311 11.175L0.76155 3.86246C0.725467 3.63746 0.76155 3.41246 0.905881 3.26246C1.05021 3.11246 1.23063 2.99995 1.44712 2.99995H9.09669C9.4936 2.99995 9.81834 3.33746 9.81834 3.74996C9.81834 4.16246 9.4936 4.49996 9.09669 4.49996H2.34919L3.57601 10.35H10.3235L13.8235 0.749952C13.9318 0.449951 14.1844 0.262451 14.473 0.262451H17.0349C17.4318 0.262451 17.7566 0.599952 17.7566 1.01245C17.7566 1.42495 17.4318 1.76245 17.0349 1.76245H14.9782L11.4782 11.25C11.3699 11.55 11.0812 11.7375 10.7926 11.7375Z" fill="white"/>
<path d="M4.04553 17.8125C2.74655 17.8125 1.66406 16.725 1.66406 15.375C1.66406 14.025 2.71047 12.9375 4.04553 12.9375C5.34451 12.9375 6.427 14.025 6.427 15.375C6.427 16.725 5.3806 17.8125 4.04553 17.8125ZM4.04553 14.3625C3.54037 14.3625 3.10738 14.8125 3.10738 15.375C3.10738 15.9375 3.54037 16.35 4.04553 16.35C4.55069 16.35 4.98368 15.9 4.98368 15.375C4.98368 14.85 4.58677 14.3625 4.04553 14.3625Z" fill="white"/>
<path d="M9.67444 17.8125C8.37545 17.8125 7.29297 16.725 7.29297 15.375C7.29297 14.025 8.33937 12.9375 9.67444 12.9375C11.0095 12.9375 12.0559 14.025 12.0559 15.375C12.0559 16.725 10.9734 17.8125 9.67444 17.8125ZM9.67444 14.3625C9.13319 14.3625 8.73628 14.8125 8.73628 15.3375C8.73628 15.8625 9.16928 16.3125 9.67444 16.3125C10.2157 16.3125 10.6126 15.8625 10.6126 15.3375C10.6126 14.8125 10.1796 14.3625 9.67444 14.3625Z" fill="white"/>
</svg>
