<svg width="18" height="18" viewBox="0 0 18 18" fill="none" xmlns="http://www.w3.org/2000/svg">
<path d="M10.6124 11.7375H2.51235C2.17485 11.7375 1.87485 11.5125 1.79985 11.175L0.187354 3.86246C0.149854 3.63746 0.187354 3.41246 0.337354 3.26246C0.487354 3.11246 0.674854 2.99995 0.899854 2.99995H8.84985C9.26235 2.99995 9.59985 3.33746 9.59985 3.74996C9.59985 4.16246 9.26235 4.49996 8.84985 4.49996H1.83735L3.11235 10.35H10.1249L13.7624 0.749952C13.8749 0.449951 14.1374 0.262451 14.4374 0.262451H17.0999C17.5124 0.262451 17.8499 0.599952 17.8499 1.01245C17.8499 1.42495 17.5124 1.76245 17.0999 1.76245H14.9624L11.3249 11.25C11.2124 11.55 10.9124 11.7375 10.6124 11.7375Z" fill="#D85829"/>
<path d="M3.6 17.8125C2.25 17.8125 1.125 16.725 1.125 15.375C1.125 14.025 2.2125 12.9375 3.6 12.9375C4.95 12.9375 6.075 14.025 6.075 15.375C6.075 16.725 4.9875 17.8125 3.6 17.8125ZM3.6 14.3625C3.075 14.3625 2.625 14.8125 2.625 15.375C2.625 15.9375 3.075 16.35 3.6 16.35C4.125 16.35 4.575 15.9 4.575 15.375C4.575 14.85 4.1625 14.3625 3.6 14.3625Z" fill="#D85829"/>
<path d="M9.4501 17.8125C8.1001 17.8125 6.9751 16.725 6.9751 15.375C6.9751 14.025 8.0626 12.9375 9.4501 12.9375C10.8376 12.9375 11.9251 14.025 11.9251 15.375C11.9251 16.725 10.8001 17.8125 9.4501 17.8125ZM9.4501 14.3625C8.8876 14.3625 8.4751 14.8125 8.4751 15.3375C8.4751 15.8625 8.9251 16.3125 9.4501 16.3125C10.0126 16.3125 10.4251 15.8625 10.4251 15.3375C10.4251 14.8125 9.9751 14.3625 9.4501 14.3625Z" fill="#D85829"/>
</svg>
