<svg width="18" height="18" viewBox="0 0 18 18" fill="none" xmlns="http://www.w3.org/2000/svg">
<path d="M17.9414 6.55879C17.9414 4.25776 16.07 2.38576 13.7699 2.38576C13.6699 2.38576 13.569 2.38952 13.4676 2.39709C12.4778 0.908909 10.8009 0 8.99999 0C7.19914 0 5.52223 0.909091 4.53241 2.39709C4.43102 2.38952 4.33011 2.38576 4.23017 2.38576C1.92993 2.38576 0.0585938 4.25776 0.0585938 6.55879C0.0585938 8.658 1.61641 10.3993 3.63623 10.6886V16.4557C3.63623 17.3073 4.32896 18 5.18047 18H12.8195C13.6711 18 14.3637 17.3072 14.3637 16.4557V10.6886C16.3836 10.3993 17.9414 8.65794 17.9414 6.55879ZM12.8195 16.8121H5.18053C4.98744 16.8121 4.82417 16.6488 4.82417 16.4556V10.6892C5.40611 10.6067 5.95859 10.403 6.45696 10.0861C7.22138 10.4996 8.09078 10.7316 8.99999 10.7316C9.9092 10.7316 10.7785 10.4996 11.543 10.0862C12.0414 10.403 12.594 10.6067 13.1759 10.6892V16.4556C13.1759 16.6488 13.0127 16.8121 12.8195 16.8121ZM13.7699 9.5437C13.37 9.5437 12.9836 9.46558 12.6244 9.31545C13.3473 8.65279 13.8937 7.79145 14.168 6.80158C14.2556 6.48545 14.0704 6.15812 13.7543 6.07049C13.4381 5.98291 13.1109 6.16818 13.0232 6.48424C12.524 8.28564 10.8696 9.5437 8.99999 9.5437C7.13035 9.5437 5.47599 8.28564 4.97678 6.48424C4.8892 6.16812 4.56205 5.98291 4.24568 6.07049C3.92956 6.15806 3.74435 6.48545 3.83193 6.80158C4.10623 7.79145 4.65271 8.65285 5.37556 9.31545C5.01641 9.46558 4.62993 9.5437 4.23017 9.5437C2.58496 9.5437 1.24653 8.20467 1.24653 6.55879C1.24653 4.91285 2.58502 3.5737 4.23017 3.5737C4.39647 3.5737 4.56768 3.58861 4.73908 3.61794C4.98647 3.66012 5.23423 3.54236 5.35726 3.32333C6.09696 2.00618 7.49277 1.18794 8.99993 1.18794C10.5071 1.18794 11.9029 2.00624 12.6427 3.32339C12.7657 3.54242 13.0133 3.66018 13.2609 3.61794C13.4323 3.58861 13.6035 3.5737 13.7697 3.5737C15.4149 3.5737 16.7533 4.91285 16.7533 6.55879C16.7535 8.20467 15.415 9.5437 13.7699 9.5437Z" fill="#D85829"/>
</svg>
