<svg width="22" height="22" viewBox="0 0 22 22" fill="none" xmlns="http://www.w3.org/2000/svg">
<path d="M21.9285 8.0163C21.9285 5.20393 19.6413 2.91593 16.83 2.91593C16.7079 2.91593 16.5845 2.92052 16.4606 2.92978C15.2508 1.11089 13.2013 0 11.0001 0C8.79911 0 6.74956 1.11111 5.53978 2.92978C5.41585 2.92052 5.29252 2.91593 5.17037 2.91593C2.35896 2.91593 0.0717773 5.20393 0.0717773 8.0163C0.0717773 10.582 1.97578 12.7102 4.44444 13.0639V20.1125C4.44444 21.1533 5.29111 22 6.33185 22H15.6684C16.7093 22 17.5559 21.1533 17.5559 20.1125V13.0639C20.0246 12.7102 21.9285 10.5819 21.9285 8.0163ZM15.6684 20.5481H6.33192C6.09592 20.5481 5.89637 20.3486 5.89637 20.1124V13.0645C6.60763 12.9638 7.28289 12.7147 7.892 12.3275C8.8263 12.8328 9.88889 13.1164 11.0001 13.1164C12.1114 13.1164 13.1739 12.8328 14.1082 12.3276C14.7175 12.7147 15.3928 12.9638 16.104 13.0645V20.1124C16.104 20.3486 15.9045 20.5481 15.6684 20.5481ZM16.83 11.6645C16.3413 11.6645 15.869 11.569 15.43 11.3856C16.3135 10.5756 16.9813 9.52289 17.3167 8.31304C17.4237 7.92667 17.1973 7.52659 16.811 7.41948C16.4245 7.31244 16.0246 7.53889 15.9174 7.92519C15.3073 10.1269 13.2853 11.6645 11.0001 11.6645C8.71504 11.6645 6.69304 10.1269 6.08289 7.92519C5.97585 7.53881 5.576 7.31244 5.18933 7.41948C4.80296 7.52652 4.57659 7.92667 4.68363 8.31304C5.01889 9.52289 5.68681 10.5757 6.5703 11.3856C6.13133 11.569 5.65896 11.6645 5.17037 11.6645C3.15955 11.6645 1.5237 10.0279 1.5237 8.0163C1.5237 6.00459 3.15963 4.36785 5.17037 4.36785C5.37363 4.36785 5.58289 4.38607 5.79237 4.42193C6.09474 4.47348 6.39755 4.32956 6.54792 4.06185C7.452 2.452 9.158 1.45193 11.0001 1.45193C12.8421 1.45193 14.5481 2.45207 15.4524 4.06193C15.6027 4.32963 15.9053 4.47356 16.2079 4.42193C16.4174 4.38607 16.6267 4.36785 16.8299 4.36785C18.8406 4.36785 20.4764 6.00459 20.4764 8.0163C20.4767 10.0279 18.8407 11.6645 16.83 11.6645Z" fill="#D85829"/>
</svg>
