<svg width="22" height="22" viewBox="0 0 22 22" fill="none" xmlns="http://www.w3.org/2000/svg">
<path d="M19.9375 16.5H19.25V15.125C19.2459 13.2985 18.6364 11.525 17.5168 10.0819C16.3972 8.63886 14.8307 7.60775 13.0625 7.15V6.1875C13.0625 5.64049 12.8452 5.11589 12.4584 4.72909C12.0716 4.3423 11.547 4.125 11 4.125C10.453 4.125 9.92839 4.3423 9.54159 4.72909C9.1548 5.11589 8.9375 5.64049 8.9375 6.1875V7.15C7.16933 7.60775 5.60284 8.63886 4.48322 10.0819C3.3636 11.525 2.75406 13.2985 2.75 15.125V16.5H2.0625C1.88016 16.5 1.7053 16.5724 1.57636 16.7014C1.44743 16.8303 1.375 17.0052 1.375 17.1875C1.375 17.3698 1.44743 17.5447 1.57636 17.6736C1.7053 17.8026 1.88016 17.875 2.0625 17.875H15.8125C15.9948 17.875 16.1697 17.8026 16.2986 17.6736C16.4276 17.5447 16.5 17.3698 16.5 17.1875C16.5 17.0052 16.4276 16.8303 16.2986 16.7014C16.1697 16.5724 15.9948 16.5 15.8125 16.5H4.125V15.125C4.125 13.3016 4.84933 11.553 6.13864 10.2636C7.42795 8.97433 9.17664 8.25 11 8.25C12.8234 8.25 14.572 8.97433 15.8614 10.2636C17.1507 11.553 17.875 13.3016 17.875 15.125V17.1875C17.8784 17.3197 17.921 17.448 17.9974 17.556C18.0189 17.5984 18.0447 17.6385 18.0744 17.6756C18.1114 17.7051 18.1513 17.7309 18.1933 17.7526C18.3016 17.829 18.43 17.8716 18.5625 17.875H19.9375C20.1198 17.875 20.2947 17.8026 20.4236 17.6736C20.5526 17.5447 20.625 17.3698 20.625 17.1875C20.625 17.0052 20.5526 16.8303 20.4236 16.7014C20.2947 16.5724 20.1198 16.5 19.9375 16.5ZM10.3125 6.91006V6.1875C10.3125 6.00516 10.3849 5.8303 10.5139 5.70136C10.6428 5.57243 10.8177 5.5 11 5.5C11.1823 5.5 11.3572 5.57243 11.4861 5.70136C11.6151 5.8303 11.6875 6.00516 11.6875 6.1875V6.91006C11.4599 6.89081 11.2324 6.875 11 6.875C10.7676 6.875 10.5401 6.89081 10.3125 6.91006Z" fill="#D85829"/>
</svg>
