<svg width="26" height="24" viewBox="0 0 26 24" fill="none" xmlns="http://www.w3.org/2000/svg">
<path d="M23.2 3.24923C21.8749 1.92074 20.1185 1.10991 18.2479 0.963193C16.3773 0.81648 14.5159 1.34356 13 2.44923C11.4095 1.26628 9.42997 0.729869 7.45988 0.948027C5.48979 1.16618 3.67553 2.1227 2.38244 3.62496C1.08936 5.12722 0.413506 7.06363 0.49098 9.04425C0.568453 11.0249 1.3935 12.9026 2.79998 14.2992L10.5625 22.0742C11.2125 22.714 12.088 23.0725 13 23.0725C13.912 23.0725 14.7875 22.714 15.4375 22.0742L23.2 14.2992C24.6595 12.8308 25.4786 10.8446 25.4786 8.77423C25.4786 6.70389 24.6595 4.71765 23.2 3.24923ZM21.4375 12.5742L13.675 20.3367C13.5866 20.4259 13.4815 20.4967 13.3657 20.545C13.2498 20.5934 13.1255 20.6182 13 20.6182C12.8744 20.6182 12.7502 20.5934 12.6343 20.545C12.5184 20.4967 12.4133 20.4259 12.325 20.3367L4.56248 12.5367C3.58218 11.5347 3.03324 10.1886 3.03324 8.78673C3.03324 7.3849 3.58218 6.0388 4.56248 5.03673C5.56142 4.05046 6.90869 3.49744 8.31248 3.49744C9.71626 3.49744 11.0635 4.05046 12.0625 5.03673C12.1787 5.15389 12.3169 5.24688 12.4693 5.31034C12.6216 5.37381 12.785 5.40648 12.95 5.40648C13.115 5.40648 13.2784 5.37381 13.4307 5.31034C13.583 5.24688 13.7213 5.15389 13.8375 5.03673C14.8364 4.05046 16.1837 3.49744 17.5875 3.49744C18.9913 3.49744 20.3385 4.05046 21.3375 5.03673C22.3313 6.02567 22.8982 7.36447 22.9169 8.76634C22.9356 10.1682 22.4045 11.5216 21.4375 12.5367V12.5742Z" fill="#13334A"/>
</svg>
