<svg width="23" height="23" viewBox="0 0 23 23" fill="none" xmlns="http://www.w3.org/2000/svg">
<g clip-path="url(#clip0)">
<path d="M15.4286 0H7.01298C3.14041 0 0 3.14041 0 7.01298V15.4286C0 19.3011 3.14041 22.4415 7.01298 22.4415H15.4286C19.3011 22.4415 22.4415 19.3011 22.4415 15.4286V7.01298C22.4415 3.14041 19.3011 0 15.4286 0ZM20.3376 15.4286C20.3376 18.1356 18.1356 20.3376 15.4286 20.3376H7.01298C4.30597 20.3376 2.10389 18.1356 2.10389 15.4286V7.01298C2.10389 4.30597 4.30597 2.10389 7.01298 2.10389H15.4286C18.1356 2.10389 20.3376 4.30597 20.3376 7.01298V15.4286Z" fill="white"/>
<path d="M11.2198 5.61035C8.12143 5.61035 5.60938 8.1224 5.60938 11.2207C5.60938 14.3191 8.12143 16.8311 11.2198 16.8311C14.3181 16.8311 16.8302 14.3191 16.8302 11.2207C16.8302 8.1224 14.3181 5.61035 11.2198 5.61035ZM11.2198 14.7272C9.28698 14.7272 7.71327 13.1535 7.71327 11.2207C7.71327 9.28656 9.28698 7.71425 11.2198 7.71425C13.1525 7.71425 14.7263 9.28656 14.7263 11.2207C14.7263 13.1535 13.1525 14.7272 11.2198 14.7272Z" fill="white"/>
<path d="M17.2515 5.93724C17.6644 5.93724 17.9991 5.60254 17.9991 5.18966C17.9991 4.77678 17.6644 4.44208 17.2515 4.44208C16.8386 4.44208 16.5039 4.77678 16.5039 5.18966C16.5039 5.60254 16.8386 5.93724 17.2515 5.93724Z" fill="white"/>
</g>
<defs>
<clipPath id="clip0">
<rect width="22.4415" height="22.4415" fill="white"/>
</clipPath>
</defs>
</svg>
