<svg width="20" height="20" viewBox="0 0 20 20" fill="none" xmlns="http://www.w3.org/2000/svg">
<path fill-rule="evenodd" clip-rule="evenodd" d="M4.16677 1.66663V4.10211C5.67388 2.59773 7.75475 1.66663 10.0538 1.66663C14.6562 1.66663 18.3872 5.39759 18.3872 9.99996H16.7205C16.7205 6.31806 13.7357 3.33329 10.0538 3.33329C7.94935 3.33329 6.0716 4.30834 4.84919 5.83329H8.38717V7.49996H2.5001V1.66663H4.16677ZM15.8871 18.3333V15.8978C14.38 17.4022 12.2992 18.3333 10.0001 18.3333C5.39771 18.3333 1.66675 14.6023 1.66675 9.99996H3.33341C3.33341 13.6819 6.31818 16.6666 10.0001 16.6666C12.1046 16.6666 13.9823 15.6916 15.2047 14.1666H11.6667V12.5H17.5538V18.3333H15.8871Z" fill="#00314C"/>
</svg>
