<svg width="10" height="17" viewBox="0 0 10 17" fill="none" xmlns="http://www.w3.org/2000/svg">
<path d="M0.947654 9.8349L7.38076 16.268C7.5218 16.4102 7.68961 16.5231 7.8745 16.6001C8.05939 16.6771 8.2577 16.7168 8.458 16.7168C8.65829 16.7168 8.8566 16.6771 9.04149 16.6001C9.22638 16.5231 9.39419 16.4102 9.53524 16.268C9.81783 15.9837 9.97644 15.5992 9.97644 15.1983C9.97644 14.7975 9.81783 14.413 9.53524 14.1287L4.1642 8.75765L9.53524 3.38662C9.81783 3.10235 9.97644 2.7178 9.97644 2.31696C9.97644 1.91613 9.81783 1.53158 9.53524 1.24731C9.39347 1.10669 9.22533 0.995437 9.04048 0.919931C8.85562 0.844427 8.65768 0.806155 8.458 0.807309C8.25832 0.806155 8.06038 0.844427 7.87552 0.919931C7.69066 0.995437 7.52253 1.10669 7.38076 1.24731L0.947654 7.68041C0.805445 7.82146 0.692572 7.98927 0.615543 8.17416C0.538515 8.35905 0.498857 8.55736 0.498857 8.75765C0.498857 8.95795 0.538515 9.15626 0.615543 9.34115C0.692572 9.52604 0.805445 9.69385 0.947654 9.8349Z" fill="#00314C"/>
</svg>
