<svg width="10" height="17" viewBox="0 0 10 17" fill="none" xmlns="http://www.w3.org/2000/svg">
<path d="M9.05247 7.1651L2.61937 0.732001C2.47832 0.589792 2.31051 0.476917 2.12562 0.399889C1.94073 0.322861 1.74242 0.283203 1.54213 0.283203C1.34183 0.283203 1.14352 0.322861 0.958629 0.399889C0.77374 0.476917 0.605931 0.589792 0.464884 0.732001C0.182296 1.01627 0.0236816 1.40082 0.0236816 1.80166C0.0236816 2.20249 0.182296 2.58704 0.464884 2.87131L5.83592 8.24235L0.464884 13.6134C0.182296 13.8977 0.0236816 14.2822 0.0236816 14.683C0.0236816 15.0839 0.182296 15.4684 0.464884 15.7527C0.606655 15.8933 0.77479 16.0046 0.959647 16.0801C1.1445 16.1556 1.34245 16.1938 1.54213 16.1927C1.7418 16.1938 1.93975 16.1556 2.1246 16.0801C2.30946 16.0046 2.4776 15.8933 2.61937 15.7527L9.05247 9.31959C9.19468 9.17854 9.30755 9.01073 9.38458 8.82584C9.46161 8.64095 9.50127 8.44264 9.50127 8.24235C9.50127 8.04205 9.46161 7.84374 9.38458 7.65885C9.30755 7.47396 9.19468 7.30615 9.05247 7.1651Z" fill="#00314C"/>
</svg>
