<svg width="30" height="30" viewBox="0 0 30 30" fill="none" xmlns="http://www.w3.org/2000/svg">
<path d="M15 0C6.7292 0 0 6.72926 0 15C0 23.2707 6.7292 30 15 30C19.0064 30 22.8226 28.3844 25.6557 25.5508C26.1266 25.0798 26.0735 24.2897 25.596 23.821L23.2286 21.4885C23.739 20.7892 23.8062 19.9387 23.3851 19.1306C22.8104 18.0273 21.9567 17.1443 20.8496 16.5073C20.4225 16.2606 20.0189 16.1401 19.617 16.1405C19.4605 16.1405 19.3027 16.1597 19.1491 16.196C18.6382 16.3205 18.1469 16.5598 17.6477 16.927C17.4914 17.0442 17.2982 17.1027 17.076 17.1027C16.8049 17.1027 16.5117 17.0095 16.3107 16.8603C14.8524 15.7733 13.6158 14.5357 12.5288 13.0784C12.3159 12.7917 12.1459 12.1679 12.4612 11.7399C12.8299 11.2412 13.0682 10.751 13.1922 10.239C13.3256 9.68748 13.2236 9.1314 12.8818 8.54061C12.2444 7.43144 11.3613 6.57883 10.2581 6.0036C9.90067 5.81736 9.53485 5.72208 9.17007 5.72208C8.56208 5.72208 7.99233 5.98743 7.52355 6.4866C7.09264 6.94551 6.71157 7.4315 6.27231 8.01936C5.86976 8.55775 5.90313 9.17952 5.93156 9.72761L5.93253 9.73896C5.98213 10.4353 6.24199 11.258 6.72731 12.2543C7.54764 13.942 8.71269 15.5444 10.2891 17.1527C10.6132 17.4836 11.9042 18.7752 12.2357 19.0992C13.8449 20.676 15.4473 21.8411 17.134 22.6615C18.1308 23.1464 18.9536 23.4063 19.6495 23.4562L19.6612 23.4568C19.8044 23.4636 19.9573 23.4714 20.1064 23.4714C20.4619 23.4714 20.9174 23.4283 21.3283 23.1409L22.886 24.6758C20.6633 26.4938 17.9098 27.4897 15.0002 27.4897C8.11354 27.4897 2.51065 21.8867 2.51065 15.0001C2.51065 8.11348 8.1136 2.51053 15.0002 2.51053C21.8868 2.51053 27.4898 8.11348 27.4898 15.0001C27.4898 15.6934 28.0517 16.2553 28.745 16.2553C29.4383 16.2553 30.0002 15.6934 30.0002 15.0001C30 6.72926 23.2707 0 15 0Z" fill="#D85829"/>
</svg>
