<svg width="18" height="18" viewBox="0 0 18 18" fill="none" xmlns="http://www.w3.org/2000/svg">
<path d="M10.6125 11.7375H2.51248C2.17498 11.7375 1.87498 11.5125 1.79998 11.175L0.187476 3.86246C0.149976 3.63746 0.187476 3.41246 0.337476 3.26246C0.487476 3.11246 0.674976 2.99995 0.899976 2.99995H8.84998C9.26248 2.99995 9.59997 3.33746 9.59997 3.74996C9.59997 4.16246 9.26248 4.49996 8.84998 4.49996H1.83748L3.11248 10.35H10.125L13.7625 0.749952C13.875 0.449951 14.1375 0.262451 14.4375 0.262451H17.1C17.5125 0.262451 17.85 0.599952 17.85 1.01245C17.85 1.42495 17.5125 1.76245 17.1 1.76245H14.9625L11.325 11.25C11.2125 11.55 10.9125 11.7375 10.6125 11.7375Z" fill="white"/>
<path d="M3.6 17.8125C2.25 17.8125 1.125 16.725 1.125 15.375C1.125 14.025 2.2125 12.9375 3.6 12.9375C4.95 12.9375 6.075 14.025 6.075 15.375C6.075 16.725 4.9875 17.8125 3.6 17.8125ZM3.6 14.3625C3.075 14.3625 2.625 14.8125 2.625 15.375C2.625 15.9375 3.075 16.35 3.6 16.35C4.125 16.35 4.575 15.9 4.575 15.375C4.575 14.85 4.1625 14.3625 3.6 14.3625Z" fill="white"/>
<path d="M9.4501 17.8125C8.1001 17.8125 6.9751 16.725 6.9751 15.375C6.9751 14.025 8.0626 12.9375 9.4501 12.9375C10.8376 12.9375 11.9251 14.025 11.9251 15.375C11.9251 16.725 10.8001 17.8125 9.4501 17.8125ZM9.4501 14.3625C8.8876 14.3625 8.4751 14.8125 8.4751 15.3375C8.4751 15.8625 8.9251 16.3125 9.4501 16.3125C10.0126 16.3125 10.4251 15.8625 10.4251 15.3375C10.4251 14.8125 9.9751 14.3625 9.4501 14.3625Z" fill="white"/>
</svg>
