<svg width="26" height="26" viewBox="0 0 26 26" fill="none" xmlns="http://www.w3.org/2000/svg">
<path d="M15.3292 16.9539H3.62921C3.14171 16.9539 2.70838 16.6289 2.60005 16.1414L0.27088 5.57891C0.216713 5.25391 0.27088 4.92891 0.487546 4.71225C0.704213 4.49558 0.975046 4.33308 1.30005 4.33308H12.7834C13.3792 4.33308 13.8667 4.82058 13.8667 5.41641C13.8667 6.01225 13.3792 6.49975 12.7834 6.49975H2.65421L4.49588 14.9498H14.625L19.8792 1.08307C20.0417 0.64974 20.4209 0.378906 20.8542 0.378906H24.7C25.2959 0.378906 25.7834 0.866407 25.7834 1.46224C25.7834 2.05808 25.2959 2.54558 24.7 2.54558H21.6125L16.3584 16.2498C16.1959 16.6831 15.7625 16.9539 15.3292 16.9539Z" fill="#00314C"/>
<path d="M5.2 25.7291C3.25 25.7291 1.625 24.1583 1.625 22.2083C1.625 20.2583 3.19583 18.6875 5.2 18.6875C7.15 18.6875 8.775 20.2583 8.775 22.2083C8.775 24.1583 7.20417 25.7291 5.2 25.7291ZM5.2 20.7458C4.44167 20.7458 3.79167 21.3958 3.79167 22.2083C3.79167 23.0208 4.44167 23.6167 5.2 23.6167C5.95833 23.6167 6.60833 22.9667 6.60833 22.2083C6.60833 21.45 6.0125 20.7458 5.2 20.7458Z" fill="#00314C"/>
<path d="M13.6502 25.7291C11.7002 25.7291 10.0752 24.1583 10.0752 22.2083C10.0752 20.2583 11.646 18.6875 13.6502 18.6875C15.6544 18.6875 17.2252 20.2583 17.2252 22.2083C17.2252 24.1583 15.6002 25.7291 13.6502 25.7291ZM13.6502 20.7458C12.8377 20.7458 12.2419 21.3958 12.2419 22.1542C12.2419 22.9125 12.8919 23.5625 13.6502 23.5625C14.4627 23.5625 15.0585 22.9125 15.0585 22.1542C15.0585 21.3958 14.4085 20.7458 13.6502 20.7458Z" fill="#00314C"/>
</svg>
