<svg width="24" height="23" viewBox="0 0 24 23" fill="none" xmlns="http://www.w3.org/2000/svg">
<path d="M16.2536 12.2416C17.3974 11.3777 18.2323 10.193 18.6422 8.85241C19.0519 7.51179 19.0163 6.08189 18.5401 4.76163C18.064 3.44139 17.171 2.29643 15.9854 1.48607C14.7999 0.675702 13.3807 0.240234 11.9253 0.240234C10.47 0.240234 9.05082 0.675702 7.86527 1.48607C6.67972 2.29643 5.78676 3.44139 5.31059 4.76163C4.83444 6.08189 4.79878 7.51179 5.20857 8.85241C5.61836 10.193 6.45323 11.3777 7.59701 12.2416C5.63711 12.9954 3.92702 14.2456 2.64905 15.8591C1.3711 17.4726 0.573167 19.3887 0.340347 21.4032C0.3235 21.5503 0.336987 21.6991 0.380048 21.8412C0.42311 21.9832 0.494895 22.1157 0.591308 22.2312C0.786036 22.4644 1.06927 22.6137 1.37868 22.6464C1.6881 22.6791 1.99837 22.5924 2.24123 22.4055C2.48408 22.2186 2.63965 21.9466 2.67368 21.6496C2.92987 19.4602 4.01732 17.4382 5.72827 15.9699C7.43922 14.5015 9.65373 13.6898 11.9486 13.6898C14.2436 13.6898 16.4582 14.5015 18.1691 15.9699C19.88 17.4382 20.9674 19.4602 21.2236 21.6496C21.2554 21.9248 21.3922 22.179 21.6076 22.363C21.8231 22.5472 22.1019 22.6481 22.3903 22.6464H22.5186C22.8245 22.6126 23.1041 22.4642 23.2963 22.2333C23.4886 22.0026 23.5781 21.7083 23.5453 21.4144C23.3114 19.3941 22.5092 17.4731 21.2247 15.8572C19.9402 14.2412 18.2217 12.9914 16.2536 12.2416ZM11.9253 11.4464C11.0024 11.4464 10.1001 11.1836 9.33269 10.6914C8.56525 10.1991 7.96711 9.49939 7.61391 8.68081C7.2607 7.86221 7.16829 6.96142 7.34835 6.09238C7.52841 5.22335 7.97287 4.42509 8.62551 3.79855C9.27816 3.17201 10.1096 2.74534 11.015 2.57247C11.9202 2.39961 12.8585 2.48833 13.7112 2.82741C14.564 3.16649 15.2928 3.74071 15.8055 4.47743C16.3183 5.21417 16.592 6.08033 16.592 6.96639C16.592 8.15456 16.1003 9.29409 15.2252 10.1342C14.35 10.9744 13.163 11.4464 11.9253 11.4464Z" fill="#00314C"/>
</svg>
