<svg width="35" height="25" viewBox="0 0 35 25" fill="none" xmlns="http://www.w3.org/2000/svg">
<path d="M33.0884 13.8023C33.2801 13.3825 33.3877 12.9181 33.3877 12.4294C33.3877 10.8712 32.303 9.5567 30.8336 9.16823C30.9144 8.88205 30.9585 8.58109 30.9585 8.2701C30.9585 6.71189 29.8738 5.39735 28.4043 5.00889C28.4851 4.7227 28.5292 4.42174 28.5292 4.11076C28.5292 2.24791 26.9795 0.732422 25.0746 0.732422C23.1697 0.732422 21.62 2.24791 21.62 4.11076C21.62 4.42174 21.664 4.7227 21.7448 5.00889C20.2753 5.39735 19.1907 6.71189 19.1907 8.2701C19.1907 8.58109 19.2348 8.88205 19.3156 9.16823C17.846 9.5567 16.7614 10.8712 16.7614 12.4294C16.7614 12.5456 16.7675 12.6603 16.7792 12.7735C16.7304 12.6998 16.6865 12.6331 16.65 12.5776C15.623 11.0169 14.2163 8.87944 11.8042 7.12202C8.96533 5.05361 5.33894 4.00487 1.02539 4.00487H0V10.2038H1.02539C7.54975 10.2038 9.55254 13.2472 11.3199 15.9329L11.4499 16.1303C11.8101 16.6763 12.1531 17.2497 12.4693 17.8344L13.8403 20.3696C15.3718 23.2015 18.3583 24.9608 21.6342 24.9608H26.1833C31.0449 24.9608 35.0001 21.093 35.0001 16.3387V13.8023H33.0884ZM31.3369 12.4294C31.3369 13.1865 30.7071 13.8023 29.9331 13.8023C29.159 13.8023 28.5292 13.1865 28.5292 12.4294C28.5292 11.6724 29.159 11.0565 29.9331 11.0565C30.7071 11.0565 31.3369 11.6724 31.3369 12.4294ZM23.6707 12.4294C23.6707 11.6724 24.3005 11.0565 25.0746 11.0565C25.8486 11.0565 26.4784 11.6724 26.4784 12.4294C26.4784 13.1865 25.8486 13.8023 25.0746 13.8023C24.3005 13.8023 23.6707 13.1864 23.6707 12.4294ZM28.9077 8.2701C28.9077 9.02711 28.2779 9.643 27.5038 9.643C26.7297 9.643 26.1 9.02711 26.1 8.2701C26.1 7.51309 26.7297 6.8972 27.5038 6.8972C28.2779 6.8972 28.9077 7.51309 28.9077 8.2701ZM25.0746 2.73792C25.8486 2.73792 26.4784 3.35375 26.4784 4.11076C26.4784 4.86777 25.8486 5.48366 25.0746 5.48366C24.3005 5.48366 23.6707 4.86777 23.6707 4.11076C23.6707 3.35375 24.3005 2.73792 25.0746 2.73792ZM22.6453 6.8972C23.4194 6.8972 24.0492 7.51309 24.0492 8.2701C24.0492 9.02711 23.4194 9.643 22.6453 9.643C21.8712 9.643 21.2414 9.02711 21.2414 8.2701C21.2414 7.51309 21.8712 6.8972 22.6453 6.8972ZM20.216 11.0565C20.9901 11.0565 21.6199 11.6724 21.6199 12.4294C21.6199 13.1865 20.9901 13.8023 20.216 13.8023C19.442 13.8023 18.8122 13.1865 18.8122 12.4294C18.8122 11.6724 19.442 11.0565 20.216 11.0565ZM32.9492 16.3387C32.9492 19.987 29.9141 22.9553 26.1833 22.9553H21.6341C19.1202 22.9553 16.8284 21.6052 15.6531 19.432L14.2821 16.8968C13.9384 16.2612 13.5653 15.6376 13.1732 15.0432L13.0441 14.8471C11.2827 12.1707 8.90012 8.55074 2.05071 8.22237V6.03149C5.4924 6.17596 8.29015 7.06266 10.5788 8.73017C12.6928 10.2705 13.9308 12.1515 14.9255 13.663C15.7121 14.8584 16.1042 15.3982 16.4959 15.6465L16.7504 15.8078H32.9492V16.3387Z" fill="#D85829"/>
</svg>
