<svg width="18" height="18" viewBox="0 0 18 18" fill="none" xmlns="http://www.w3.org/2000/svg">
<path d="M1.86551 3.475C2.02428 3.475 2.18399 3.42149 2.31544 3.31184L4.22464 1.71972C4.52287 1.47102 4.56302 1.02763 4.31432 0.729399C4.06563 0.431169 3.62224 0.390985 3.324 0.639715L1.41481 2.23191C1.11658 2.4806 1.07643 2.92399 1.32513 3.22222C1.4642 3.38893 1.6641 3.475 1.86551 3.475Z" fill="#D85829"/>
<path d="M13.7758 1.71971L15.685 3.31183C15.8164 3.42149 15.9761 3.47499 16.1349 3.47499C16.3363 3.47499 16.5362 3.38893 16.6753 3.22219C16.924 2.92395 16.8838 2.48056 16.5856 2.23187L14.6764 0.639712C14.3782 0.391017 13.9348 0.43113 13.6861 0.729396C13.4374 1.02763 13.4775 1.47098 13.7758 1.71971Z" fill="#D85829"/>
<path d="M14.8669 3.83632C13.4583 2.42779 11.6324 1.5885 9.66809 1.433V0.703125C9.66809 0.314789 9.3533 0 8.96496 0C8.57663 0 8.26184 0.314789 8.26184 0.703125V1.43905C6.32427 1.60882 4.52512 2.44462 3.13339 3.83636C1.5663 5.40338 0.703247 7.48691 0.703247 9.70305C0.703247 11.9192 1.5663 14.0028 3.13335 15.5698C3.27869 15.7151 3.42852 15.8543 3.58244 15.9874L3.01706 16.9371C2.81842 17.2708 2.92786 17.7023 3.26153 17.901C3.37431 17.9681 3.4982 18 3.62055 18C3.86024 18 4.09386 17.8774 4.22538 17.6565L4.72495 16.8173C6.00252 17.5881 7.46963 17.9999 9.00009 17.9999C10.5244 17.9999 11.9873 17.5928 13.2745 16.816L13.7748 17.6564C13.9063 17.8773 14.1399 18 14.3796 18C14.5019 18 14.6259 17.968 14.7386 17.9009C15.0723 17.7023 15.1817 17.2708 14.9831 16.9371L14.1042 15.4607C14.0027 15.2902 13.8339 15.1705 13.6393 15.1312C13.4449 15.0919 13.2427 15.1366 13.083 15.2543C11.8939 16.1305 10.4821 16.5936 9.00009 16.5936C5.20061 16.5936 2.1095 13.5026 2.1095 9.70305C2.1095 5.90354 5.20061 2.8125 9.00009 2.8125C12.7996 2.8125 15.8907 5.90358 15.8907 9.70309C15.8907 10.8636 15.5969 12.0107 15.0413 13.0203C14.854 13.3605 14.978 13.788 15.3182 13.9753C15.6584 14.1625 16.086 14.0385 16.2732 13.6983C16.9429 12.4816 17.2969 11.1 17.2969 9.70305C17.2969 7.48691 16.4339 5.40338 14.8669 3.83632Z" fill="#D85829"/>
<path d="M8.96484 4.53516C8.57651 4.53516 8.26172 4.84995 8.26172 5.23828V9.70309C8.26172 9.88959 8.33579 10.0684 8.46766 10.2003L10.4564 12.189C10.5937 12.3263 10.7736 12.3949 10.9536 12.3949C11.1335 12.3949 11.3135 12.3263 11.4507 12.189C11.7254 11.9145 11.7254 11.4692 11.4507 11.1946L9.66797 9.41186V5.23828C9.66797 4.84995 9.35318 4.53516 8.96484 4.53516Z" fill="#D85829"/>
</svg>
