<svg width="23" height="23" viewBox="0 0 23 23" fill="none" xmlns="http://www.w3.org/2000/svg">
<g clip-path="url(#clip0)">
<path d="M15.4286 0H7.01298C3.14041 0 0 3.14041 0 7.01298V15.4286C0 19.3011 3.14041 22.4415 7.01298 22.4415H15.4286C19.3011 22.4415 22.4415 19.3011 22.4415 15.4286V7.01298C22.4415 3.14041 19.3011 0 15.4286 0ZM20.3376 15.4286C20.3376 18.1356 18.1356 20.3376 15.4286 20.3376H7.01298C4.30597 20.3376 2.10389 18.1356 2.10389 15.4286V7.01298C2.10389 4.30597 4.30597 2.10389 7.01298 2.10389H15.4286C18.1356 2.10389 20.3376 4.30597 20.3376 7.01298V15.4286Z" fill="#13334A"/>
<path d="M11.2207 5.60938C8.1224 5.60938 5.61035 8.12143 5.61035 11.2198C5.61035 14.3181 8.1224 16.8302 11.2207 16.8302C14.3191 16.8302 16.8311 14.3181 16.8311 11.2198C16.8311 8.12143 14.3191 5.60938 11.2207 5.60938ZM11.2207 14.7263C9.28796 14.7263 7.71425 13.1525 7.71425 11.2198C7.71425 9.28558 9.28796 7.71327 11.2207 7.71327C13.1535 7.71327 14.7272 9.28558 14.7272 11.2198C14.7272 13.1525 13.1535 14.7263 11.2207 14.7263Z" fill="#13334A"/>
<path d="M17.252 5.93657C17.6648 5.93657 17.9995 5.60187 17.9995 5.18899C17.9995 4.77611 17.6648 4.44141 17.252 4.44141C16.8391 4.44141 16.5044 4.77611 16.5044 5.18899C16.5044 5.60187 16.8391 5.93657 17.252 5.93657Z" fill="#13334A"/>
</g>
<defs>
<clipPath id="clip0">
<rect width="22.4415" height="22.4415" fill="white"/>
</clipPath>
</defs>
</svg>
