<svg width="35" height="35" viewBox="0 0 35 35" fill="none" xmlns="http://www.w3.org/2000/svg">
<path d="M27.3543 13.623C26.7637 13.623 26.3206 14.0843 26.3206 14.6263C26.3206 15.1673 26.7629 15.6295 27.3543 15.6295C27.9205 15.6295 28.3795 15.1803 28.3795 14.6263C28.3795 14.0722 27.9205 13.623 27.3543 13.623Z" fill="#D85829"/>
<path d="M34.9874 20.8842C33.7919 13.2668 29.6613 7.46518 21.9248 6.00016C21.3899 4.97957 20.3973 3.48126 18.7681 2.34017C15.8748 0.313693 12.4001 0.349314 9.00031 1.50912C7.97957 1.85731 8.11399 3.24534 9.11935 3.44357C11.5376 3.97542 12.553 5.15968 13.1403 6.19136C11.0735 6.64208 9.81397 7.19525 8.36863 8.12936C1.1167 12.8107 -0.956008 19.1588 0.380603 24.4873C0.38074 24.4879 0.380945 24.4883 0.381082 24.4889C1.9478 30.7284 8.49807 34.6353 8.77615 34.7986C8.93231 34.8903 9.11156 34.9416 9.31242 34.9416C9.59965 34.9416 11.4032 34.8822 12.655 33.4402C13.7615 32.1658 14.0764 30.2686 13.5908 27.8016C13.4677 27.176 12.7772 26.8141 12.1704 27.0739C12.1534 27.0811 10.4523 27.7981 8.37792 27.7219C5.88574 27.6302 3.9264 26.4567 2.54687 24.2318C2.90279 23.6268 3.6488 22.5055 4.76577 21.5522C6.8026 19.8139 9.12366 19.4162 11.6646 20.3704C11.8805 20.4541 15.2825 21.7585 19.7305 22.6251C24.2968 23.5148 29.7323 23.9136 34.0348 22.1119C34.3922 21.9622 34.6465 21.8749 34.8389 21.58C34.9739 21.373 35.0265 21.1262 34.9874 20.8842ZM11.7382 29.3252C11.8339 30.5647 11.6206 31.5211 11.1066 32.1258C10.6152 32.7038 9.93685 32.8699 9.57369 32.9177C8.87811 32.4674 6.90415 31.1028 5.15975 29.0746C7.24504 29.9137 9.57881 29.8977 11.7382 29.3252ZM22.6666 21.0726C21.7872 19.4633 20.37 16.2146 21.2383 13.2199C21.7337 11.5116 22.9367 10.093 24.8172 8.99764C29.4918 11.1214 31.87 15.4341 32.8266 20.4281C29.733 21.5879 25.937 21.5087 22.6666 21.0726ZM19.3344 5.68698C17.786 5.60064 16.3785 5.69219 15.2553 5.83094C14.8254 4.95424 14.1394 3.72653 12.6712 2.74872C16.1112 2.47103 18.1729 4.12793 19.3344 5.68698ZM12.4165 18.5052C8.8041 17.0921 5.0135 17.9326 2.07737 21.3919C2.10655 18.3957 3.34407 13.7753 9.49858 9.80236C10.2302 9.32952 10.8433 9.0076 11.4864 8.75878C13.0219 8.16478 14.9395 7.83556 16.5797 7.715C18.5462 7.57385 20.5559 7.69274 22.4346 8.16785C18.3586 11.3138 18.1351 16.0058 20.1933 20.666C15.8664 19.8267 12.4833 18.5311 12.4165 18.5052Z" fill="#D85829"/>
</svg>
