<svg width="35" height="35" viewBox="0 0 35 35" fill="none" xmlns="http://www.w3.org/2000/svg">
<path d="M34.9478 11.6857C33.1756 6.34054 28.9102 4.69082 26.121 4.43611C25.6268 1.78732 23.3309 0 20.796 0H15.3033C14.8886 0 14.5147 0.249854 14.356 0.633008C14.1974 1.01616 14.2851 1.45722 14.5783 1.75048L17.4066 4.57878C10.659 5.67704 5.49158 11.5451 5.49158 18.5983V26.4403C2.38355 26.9336 0 29.6317 0 32.8763V33.9746C0 34.5409 0.459102 35 1.02539 35H3.77118C4.8527 35 5.82866 34.5416 6.51697 33.8099C7.20521 34.5416 8.18118 35 9.2627 35H12.0085C12.5748 35 13.0339 34.5409 13.0339 33.9746V32.8763C13.0339 29.6514 10.6791 26.9665 7.59876 26.4497C8.06155 22.6097 11.3396 19.6237 15.3024 19.6237H17.2212L14.5784 22.2665C14.2851 22.5598 14.1974 23.0008 14.3561 23.384C14.5148 23.7671 14.8887 24.017 15.3034 24.017H20.7961C23.3236 24.017 25.6252 22.2375 26.1209 19.5809C28.9105 19.3263 33.1773 17.6757 34.9479 12.3311C35.0174 12.1216 35.0174 11.8952 34.9478 11.6857ZM5.49158 31.2288C5.49158 32.1774 4.7198 32.9492 3.77118 32.9492H2.05078V32.8763C2.05078 30.7664 3.52153 28.9935 5.49151 28.5289V31.2288H5.49158ZM20.796 2.05078C21.574 2.05078 23.3794 2.45492 24.0013 4.39325H20.1213L17.7789 2.05078H20.796ZM10.9831 32.8763V32.9492H9.2627C8.31407 32.9492 7.54229 32.1774 7.54229 31.2288V28.5289C9.51234 28.9935 10.9831 30.7664 10.9831 32.8763ZM15.3023 17.5729C12.1491 17.5729 9.33837 19.0684 7.54229 21.3872V18.5983C7.54229 11.8964 12.9947 6.44403 19.6966 6.44403H23.0558C20.8986 9.82406 20.8986 14.1929 23.0558 17.5729H15.3023ZM20.796 21.9661H17.7789L20.1214 19.6237H24.0013C23.3794 21.5611 21.5852 21.9661 20.796 21.9661ZM32.8887 12.023C31.8276 15.2064 28.9384 17.3881 25.6173 17.5617C22.778 14.4156 22.778 9.60128 25.6173 6.45518C28.9384 6.62881 31.8276 8.81057 32.8893 11.9954C32.8907 11.9998 32.8922 12.0041 32.8936 12.0084C32.892 12.0133 32.8904 12.0181 32.8887 12.023Z" fill="#D85829"/>
<path d="M28.4831 11.9355C29.0494 11.9355 29.5085 11.4765 29.5085 10.9102C29.5085 10.3438 29.0494 9.88477 28.4831 9.88477C27.9168 9.88477 27.4577 10.3438 27.4577 10.9102C27.4577 11.4765 27.9168 11.9355 28.4831 11.9355Z" fill="#D85829"/>
</svg>
