<svg width="30" height="30" viewBox="0 0 30 30" fill="none" xmlns="http://www.w3.org/2000/svg">
<path d="M11.4217 4.52339C11.4217 4.14529 11.4966 4.00214 11.6324 3.74246C11.8059 3.41088 12.0436 2.95678 12.0436 2.14648H10.2857C10.2857 2.52459 10.2108 2.66773 10.075 2.92742C9.90148 3.259 9.66382 3.7131 9.66382 4.52339C9.66382 5.3338 9.90142 5.7879 10.0749 6.11948C10.2108 6.37929 10.2857 6.52237 10.2857 6.90066C10.2857 7.27894 10.2108 7.42196 10.0749 7.68183C9.90147 8.01341 9.66382 8.46757 9.66382 9.27792H11.4217C11.4217 8.89969 11.4966 8.75661 11.6325 8.49675C11.806 8.16516 12.0436 7.71101 12.0436 6.90066C12.0436 6.09031 11.806 5.63615 11.6325 5.30456C11.4966 5.04476 11.4217 4.90162 11.4217 4.52339Z" fill="#D85829"/>
<path d="M15.5679 4.52339C15.5679 4.14529 15.6428 4.00214 15.7787 3.74246C15.9522 3.41088 16.1899 2.95678 16.1899 2.14648H14.432C14.432 2.52459 14.3571 2.66773 14.2212 2.92742C14.0477 3.259 13.8101 3.7131 13.8101 4.52339C13.8101 5.3338 14.0477 5.7879 14.2212 6.11948C14.3571 6.37929 14.432 6.52237 14.432 6.90066C14.432 7.27894 14.3571 7.42196 14.2212 7.68183C14.0477 8.01341 13.8101 8.46757 13.8101 9.27792H15.5679C15.5679 8.89969 15.6428 8.75661 15.7787 8.49675C15.9522 8.16516 16.1899 7.71101 16.1899 6.90066C16.1899 6.09031 15.9522 5.63615 15.7787 5.30456C15.6428 5.04476 15.5679 4.90162 15.5679 4.52339Z" fill="#D85829"/>
<path d="M19.7142 4.52339C19.7142 4.14523 19.789 4.00215 19.925 3.7424C20.0985 3.41088 20.3361 2.95672 20.3361 2.14648H18.5783C18.5783 2.52465 18.5034 2.66773 18.3675 2.92748C18.194 3.259 17.9564 3.71316 17.9564 4.52339C17.9564 5.33374 18.194 5.7879 18.3675 6.11948C18.5034 6.37929 18.5783 6.52232 18.5783 6.90066C18.5783 7.27899 18.5034 7.42196 18.3675 7.68183C18.194 8.01341 17.9564 8.46763 17.9564 9.27792H19.7142C19.7142 8.89964 19.789 8.75661 19.925 8.49675C20.0985 8.16516 20.3361 7.71095 20.3361 6.90066C20.3361 6.09036 20.0985 5.63615 19.925 5.30456C19.7891 5.04476 19.7142 4.90167 19.7142 4.52339Z" fill="#D85829"/>
<path d="M27.1669 15.9719V11.4612L25.9183 12.04C24.5335 12.682 23.2493 13.6364 22.2046 14.8001C22.0486 14.9739 21.9044 15.146 21.7725 15.3117C21.3794 14.8195 20.8524 14.2441 20.2004 13.6904C18.7504 12.459 16.2794 10.9912 12.7424 10.9912C9.20535 10.9912 6.73434 12.4591 5.28433 13.6904C4.24944 14.5693 3.57808 15.4475 3.22564 15.9719H0V16.8509C0 20.9776 3.35736 24.335 7.48417 24.335H8.68469V27.8536H21.3153V24.335H22.5158C26.6426 24.335 30 20.9776 30 16.8508V15.9718H27.1669V15.9719ZM25.409 14.335V15.9719H23.519C23.979 15.4605 24.6056 14.8692 25.409 14.335ZM12.7424 12.7491C15.1275 12.7491 17.2355 13.5011 19.0077 14.9842C19.4111 15.3218 19.7507 15.6614 20.0295 15.9719H12.1936C12.0821 14.8739 11.7614 13.8206 11.2454 12.8531C11.7313 12.784 12.2304 12.7491 12.7424 12.7491ZM6.47565 14.9853C7.38555 14.2236 8.38416 13.6552 9.46317 13.2818C9.9751 14.1028 10.3 15.0141 10.4232 15.9719H5.45518C5.73368 15.6617 6.07288 15.3226 6.47565 14.9853ZM10.4425 26.0957V24.335H19.5573V26.0957H10.4425ZM22.5158 22.5772H7.48417C4.62562 22.5772 2.24953 20.4714 1.82531 17.7298H28.1748C27.7504 20.4714 25.3744 22.5772 22.5158 22.5772Z" fill="#D85829"/>
</svg>
