<svg width="35" height="35" viewBox="0 0 35 35" fill="none" xmlns="http://www.w3.org/2000/svg">
<path d="M31.7185 0H23.5151C22.9488 0 22.4897 0.459117 22.4897 1.02542C22.4897 1.59173 22.9488 2.05085 23.5151 2.05085H31.7185C32.3625 2.05085 32.949 2.63732 32.949 3.28136C32.949 3.90044 32.374 4.44351 31.7185 4.44351C31.5048 4.44351 15.6438 4.44351 15.0383 4.44351C6.13903 4.44351 -0.774926 12.1944 0.0698189 20.8813C0.796435 28.3535 7.23385 34.3859 15.0383 34.3859H20.7048L24.5579 34.9588C25.5181 35.112 26.4797 34.8251 27.2052 34.2074C28.6223 33.0008 28.7787 30.8888 27.4884 29.5322C28.7546 28.201 28.6398 26.1124 27.2412 24.9214C26.5046 24.2942 25.531 24.0217 24.5676 24.1725L20.7137 24.6786H15.8586C13.71 24.6786 11.962 22.9305 11.962 20.7819C11.962 18.6333 13.71 16.8853 15.8586 16.8853H16.9524C22.9018 16.8853 27.802 12.3107 28.3223 6.49436H31.7185C33.4731 6.49436 34.9999 5.07804 34.9999 3.28136C34.9999 1.50266 33.4972 0 31.7185 0ZM4.95405 11.3275L10.9927 17.3661C10.4991 18.0672 10.1531 18.879 9.99996 19.7565H2.05634C1.98606 16.7203 3.01456 13.7235 4.95405 11.3275ZM14.8332 26.6407V32.3326C12.305 32.2921 9.92066 31.505 7.91145 30.1793L12.4429 25.6479C13.1438 26.1414 13.9558 26.4875 14.8332 26.6407ZM2.27311 21.8074H9.99996C10.1531 22.6848 10.4991 23.4967 10.9927 24.1978L6.28027 28.9102C4.253 27.0628 2.80244 24.5916 2.27311 21.8074ZM20.7807 26.7294C20.8932 26.7294 24.8714 26.2008 24.8784 26.1997C25.2527 26.1393 25.6293 26.2425 25.9116 26.4829C26.7489 27.1958 26.2035 28.5068 25.086 28.5068H22.9682C22.4019 28.5068 21.9428 28.9659 21.9428 29.5322C21.9428 30.0985 22.4019 30.5577 22.9682 30.5577H25.086C25.7653 30.5577 26.318 31.0788 26.318 31.7195C26.318 32.4007 25.6898 33.0489 24.8657 32.9312C20.5941 32.2961 20.8894 32.3351 20.7807 32.3351H16.8841V26.7294H20.7807ZM16.9524 14.8345H15.8586C14.5884 14.8345 13.4101 15.2349 12.4428 15.916L6.36572 9.83888C8.74047 7.70012 11.835 6.49436 15.0382 6.49436H26.2622C25.7499 11.178 21.7702 14.8345 16.9524 14.8345Z" fill="#D85829"/>
<path d="M20.8032 8.99107C20.2775 8.64435 19.5994 8.84608 19.33 9.36082C18.9203 10.1088 19.571 11.0106 20.434 10.8491C21.3516 10.6568 21.5423 9.4773 20.8032 8.99107Z" fill="#D85829"/>
</svg>
