<svg width="35" height="35" viewBox="0 0 35 35" fill="none" xmlns="http://www.w3.org/2000/svg">
<path d="M12.601 2.74321H14.4231V0.732422H2.75666V2.74321H4.57878V11.5373L0 22.0698V34.9597H17.2224V22.068L12.601 11.5355V2.74321ZM10.5448 2.74321V4.45136H6.63496V2.74321H10.5448ZM15.1662 28.8303H8.21892V20.8352H14.444L15.1662 22.4812V28.8303ZM13.5617 18.8244H6.16273V30.841H15.1662V32.949H2.05618V22.4794L6.63496 11.947V6.46214H10.5449V11.9487L13.5617 18.8244Z" fill="#D85829"/>
<path d="M33.9146 4.25814C33.0013 3.16815 31.6511 2.54297 30.2101 2.54297H21.204C19.7633 2.54297 18.4133 3.16795 17.5 4.25754C16.5867 5.3472 16.2251 6.76442 16.5084 8.14835L20.7732 28.7172V34.9623H30.6881V28.7109L34.9057 8.14741C35.1891 6.76576 34.8278 5.34813 33.9146 4.25814ZM19.0859 5.52876C19.6081 4.90565 20.3802 4.54827 21.204 4.54827H30.2101C31.034 4.54827 31.8062 4.90572 32.3284 5.5291C32.8506 6.15234 33.0572 6.96296 32.8951 7.753L32.7187 8.61336H21.5283L24.2352 21.8337H30.0072L28.8217 27.6139H22.6369L18.5187 7.7522C18.3569 6.96223 18.5637 6.15181 19.0859 5.52876ZM32.3074 10.6187L30.4185 19.8284H25.9158L24.0301 10.6187H32.3074ZM22.8239 32.957V29.6193H28.6375V32.957H22.8239Z" fill="#D85829"/>
</svg>
