<svg width="35" height="28" viewBox="0 0 35 28" fill="none" xmlns="http://www.w3.org/2000/svg">
<path d="M18.0223 27.1352H18.0273H18.0319C24.2292 27.1318 31.5242 23.116 34.7312 19.3931C34.8342 19.2731 34.8835 19.1328 34.9081 18.9884C34.935 18.8804 34.9423 18.765 34.9219 18.6472C34.8435 18.1891 34.3989 17.8807 33.9339 17.9559C28.0065 18.9199 24.9296 17.0002 23.8804 16.131C22.8665 15.2911 22.4131 14.3971 22.4131 13.884C22.4131 13.4808 22.9181 12.4664 24.2723 11.4588C25.4423 10.5888 28.6712 8.73489 33.5919 9.97497C33.8865 10.1732 34.2835 10.1867 34.5869 9.96557C34.7992 9.81173 34.9065 9.58079 34.9208 9.34158C34.9677 9.01849 34.8185 8.70555 34.5489 8.52915C32.0846 5.44682 27.8877 2.84818 23.6092 1.54115C23.5758 1.52874 23.5408 1.52009 23.5062 1.51181C21.645 0.952894 19.7735 0.632812 18.0273 0.632812C17.4623 0.632812 15.6596 0.72233 15.6008 0.756933C13.2335 0.993891 11.0131 1.57237 9.03039 2.42278C9.00693 2.4288 8.98347 2.43181 8.96039 2.44046C8.90155 2.46228 8.84616 2.49011 8.79501 2.52246C6.48847 3.54702 4.51885 4.94319 3.03655 6.59738C2.96385 6.65831 2.9027 6.72789 2.85462 6.80688C1.09193 8.85563 0.0661621 11.2828 0.0661621 13.8844C0.0665467 21.1895 8.12078 27.133 18.0223 27.1352ZM31.8142 19.8734C31.0454 20.5282 30.1662 21.1673 29.2069 21.7691L28.6592 19.7749C29.3115 19.8569 30.0139 19.9054 30.775 19.9054C31.1089 19.9054 31.4585 19.8922 31.8142 19.8734ZM22.7692 17.4136C25.7015 19.6602 26.7619 19.3577 26.9189 19.9159L27.6739 22.6665C26.56 23.266 25.3769 23.7964 24.1731 24.2346L21.3627 16.3728C21.4346 16.3021 21.5015 16.2295 21.5665 16.1536C21.89 16.5914 22.2785 17.0367 22.7692 17.4136ZM18.7954 12.0263C19.8427 12.0263 20.695 12.8598 20.695 13.884C20.695 14.9082 19.8423 15.7413 18.7954 15.7413C17.7485 15.7413 16.8962 14.9078 16.8962 13.884C16.8965 12.8598 17.7485 12.0263 18.7954 12.0263ZM25.8392 8.70254L24.5192 3.61021C27.1889 4.61596 29.7358 6.14152 31.6781 7.94202C29.2808 7.71785 27.3139 8.13196 25.8392 8.70254ZM22.5839 2.98396L24.2604 9.4514C23.8346 9.69513 23.4904 9.92946 23.2315 10.122C22.58 10.6065 22.0389 11.1402 21.6204 11.6803C21.1139 11.0612 20.4008 10.6121 19.5823 10.4338C19.6592 10.2563 19.6796 10.054 19.6158 9.85574L17.2185 2.328C17.4865 2.3186 17.7562 2.31371 18.0277 2.31371C19.4823 2.31333 21.0327 2.55668 22.5839 2.98396ZM3.34078 8.94665L4.43116 11.7142C4.56232 12.0478 4.88808 12.2528 5.2327 12.2528C5.33539 12.2528 5.44039 12.2343 5.54116 12.1964C5.98385 12.0297 6.20462 11.5434 6.03462 11.1101L4.57578 7.40567C5.70309 6.22163 7.13193 5.19519 8.78039 4.379L11.4792 11.4795C11.6073 11.8184 11.9362 12.0275 12.2846 12.0275C12.3839 12.0275 12.4854 12.0105 12.5842 11.9748C13.0285 11.8127 13.2554 11.3294 13.09 10.8938L10.3519 3.68957C11.9192 3.0889 13.6396 2.66614 15.4604 2.45927L17.9754 10.3552C17.9846 10.3842 18.0027 10.4056 18.015 10.432C16.6735 10.7223 15.6119 11.7428 15.2865 13.0441H6.60885C6.13462 13.0441 5.74962 13.4203 5.74962 13.8844C5.74962 14.3478 6.13462 14.7239 6.60885 14.7239H15.2862C15.6731 16.2698 17.0977 17.4218 18.7954 17.4218C19.1669 17.4218 19.5246 17.3666 19.8619 17.2642L22.5423 24.7645C21.2127 25.1399 19.8858 25.3731 18.6158 25.4306L15.3077 16.7241C15.1423 16.2897 14.6481 16.0678 14.2019 16.2295C13.7577 16.3916 13.5308 16.8753 13.6962 17.3101L16.7765 25.4175C14.9412 25.3171 13.1904 25.0004 11.575 24.5005L8.81232 17.2304C8.64693 16.7952 8.1527 16.5733 7.70655 16.7362C7.26232 16.8971 7.03539 17.3812 7.20078 17.8164L9.43616 23.6986C4.84616 21.6506 1.78424 18.018 1.78424 13.8844C1.78424 12.1193 2.34424 10.4459 3.34078 8.94665Z" fill="#D85829"/>
</svg>
