<svg width="24" height="23" viewBox="0 0 24 23" fill="none" xmlns="http://www.w3.org/2000/svg">
<g clip-path="url(#clip0)">
<path d="M19.0074 21.6202C18.8321 21.6202 18.658 21.5684 18.5087 21.4671L12.866 17.6395L9.83956 19.8172C9.6022 19.9879 9.29626 20.0309 9.02065 19.9323C8.74539 19.8335 8.53634 19.6055 8.46172 19.3228L6.94211 13.5639L1.51237 11.4878C1.17055 11.357 0.943853 11.03 0.941366 10.664C0.938879 10.298 1.16108 9.96793 1.50124 9.83255L22.1471 1.61742C22.2408 1.57763 22.3399 1.55465 22.4399 1.54849C22.4757 1.54636 22.5115 1.54636 22.5472 1.54837C22.7542 1.56069 22.9576 1.64502 23.1163 1.80065C23.1328 1.81676 23.1484 1.83322 23.1632 1.8504C23.2947 2.00058 23.3669 2.18369 23.3806 2.37024C23.3839 2.41714 23.3836 2.46464 23.3795 2.51213C23.3766 2.54601 23.3718 2.57976 23.3649 2.61328L19.88 20.8982C19.824 21.192 19.6241 21.4378 19.3478 21.5524C19.2383 21.5979 19.1226 21.6202 19.0074 21.6202ZM13.3614 15.8288L18.3878 19.2381L21.0994 5.01043L11.3058 14.4344L13.3377 15.8128C13.3459 15.8179 13.3537 15.8233 13.3614 15.8288ZM9.17723 15.0706L9.85022 17.6207L11.3002 16.5773L9.40156 15.2894C9.31332 15.2297 9.23775 15.1553 9.17723 15.0706ZM4.27385 10.6414L8.00217 12.0668C8.26925 12.1689 8.47084 12.3935 8.5438 12.6699L9.01662 14.4618C9.0383 14.2552 9.13199 14.0607 9.28418 13.9142L18.6161 4.93462L4.27385 10.6414Z" fill="#13334A"/>
</g>
<defs>
<clipPath id="clip0">
<rect width="22.4415" height="22.4415" fill="white" transform="translate(0.941406 0.363281)"/>
</clipPath>
</defs>
</svg>
