<svg width="23" height="23" viewBox="0 0 23 23" fill="none" xmlns="http://www.w3.org/2000/svg">
<g clip-path="url(#clip0)">
<path d="M21.6515 13.3548C22.321 7.71913 21.3298 4.16121 19.542 2.55196L19.5429 2.55103C16.6573 -0.197126 6.91207 -0.603879 3.45982 2.67446C1.90948 4.27809 1.3634 6.63165 1.30356 9.54531C1.24371 12.4599 1.17265 17.9197 6.26033 19.4009H6.26501L6.26033 21.6628C6.26033 21.6628 6.22573 22.5792 6.81108 22.7634C7.48059 22.9803 7.78355 22.5549 9.86594 20.0676C13.3481 20.3696 16.0224 19.6777 16.3263 19.5767C17.0295 19.341 21.0082 18.8146 21.6515 13.3548ZM10.2091 18.4761C10.2091 18.4761 8.00516 21.2243 7.31976 21.9377C7.09534 22.1696 6.84942 22.1481 6.85316 21.6881C6.85316 21.386 6.86999 17.9328 6.86999 17.9328C2.55654 16.6967 2.81088 12.0475 2.85763 9.61544C2.90439 7.1824 3.34948 5.18978 4.66231 3.84796C7.69098 1.00817 16.2347 1.64308 18.4115 3.689C21.0727 6.04817 20.1255 12.7133 20.1311 12.9405C19.5841 17.498 16.36 17.787 15.7671 17.9843C15.5137 18.0684 13.162 18.6734 10.2091 18.4761Z" fill="#13334A"/>
<path d="M11.4284 4.38086C11.0684 4.38086 11.0684 4.9419 11.4284 4.94657C14.2215 4.96808 16.5217 6.91488 16.547 10.4859C16.547 10.8627 17.0987 10.8581 17.094 10.4812H17.0931C17.0631 6.63343 14.5516 4.40237 11.4284 4.38086Z" fill="#13334A"/>
<path d="M15.1022 9.89481C15.0938 10.267 15.6446 10.2847 15.6492 9.9079C15.695 7.78624 14.3869 6.0386 11.9286 5.8544C11.5686 5.82822 11.5312 6.39393 11.8903 6.42011C14.0222 6.58188 15.1452 8.03684 15.1022 9.89481Z" fill="#13334A"/>
<path d="M14.5132 12.3077C14.0513 12.0403 13.5809 12.2067 13.3864 12.4695L12.9797 12.9959C12.773 13.2633 12.3869 13.2278 12.3869 13.2278C9.56857 12.4826 8.81491 9.53338 8.81491 9.53338C8.81491 9.53338 8.78031 9.13411 9.03839 8.91998L9.54706 8.4992C9.8014 8.29722 9.96223 7.81099 9.70322 7.33317C9.01127 6.08299 8.54654 5.65193 8.30997 5.32091C8.06124 5.00954 7.68722 4.93941 7.29823 5.1498H7.28981C6.48098 5.62294 5.59548 6.50845 5.8788 7.42013C6.36223 8.38138 7.25054 11.4456 10.0819 13.7608C11.4125 14.8558 13.5183 15.9778 14.4122 16.2369L14.4206 16.2499C15.3014 16.5436 16.158 15.6234 16.6152 14.7903V14.7838C16.8181 14.3807 16.7508 13.9992 16.4544 13.7496C15.9289 13.2372 15.1359 12.6715 14.5132 12.3077Z" fill="#13334A"/>
<path d="M12.3139 7.94131C13.2125 7.99368 13.6482 8.46308 13.695 9.42713C13.7118 9.80396 14.2588 9.77778 14.242 9.40095C14.1822 8.14235 13.5257 7.44105 12.3438 7.3756C11.9838 7.35409 11.9502 7.91981 12.3139 7.94131Z" fill="#13334A"/>
</g>
<defs>
<clipPath id="clip0">
<rect width="22.4415" height="22.4415" fill="white" transform="translate(0 0.363281)"/>
</clipPath>
</defs>
</svg>
