<svg width="20" height="20" viewBox="0 0 20 20" fill="none" xmlns="http://www.w3.org/2000/svg">
<path d="M15.6636 3.52898C16.8657 2.89578 17.8414 1.98652 18.4854 0.899531C18.5945 0.715391 18.5964 0.486836 18.4905 0.300859C18.3845 0.114844 18.1869 0 17.9728 0H2.02733C1.81327 0 1.61565 0.114844 1.50967 0.30082C1.4037 0.486836 1.40561 0.715391 1.51471 0.899492C2.1587 1.98648 3.13448 2.89578 4.33651 3.52895C5.3687 4.0727 6.53245 4.39367 7.73147 4.4693V6H4.91557C3.86272 6 2.97229 6.78805 2.84432 7.83305L1.64104 17.6596C1.56842 18.2525 1.75385 18.8489 2.14967 19.2962C2.54549 19.7435 3.11507 20 3.71229 20H16.2882C16.8854 20 17.455 19.7435 17.8508 19.2962C18.2466 18.849 18.432 18.2525 18.3594 17.6597L17.1562 7.83313C17.0282 6.78809 16.1378 6.00008 15.0849 6.00008H12.2687V4.46938C13.4676 4.39367 14.6314 4.0727 15.6636 3.52898ZM15.0849 7.19164C15.5366 7.19164 15.9185 7.52965 15.9734 7.97797L17.1766 17.8045C17.2082 18.0625 17.1308 18.3118 16.9584 18.5066C16.7861 18.7012 16.5481 18.8084 16.2882 18.8084H3.71225C3.45229 18.8084 3.21424 18.7012 3.04198 18.5065C2.86967 18.3119 2.79217 18.0626 2.82378 17.8045L4.02702 7.97797C4.0819 7.52973 4.46389 7.19168 4.91553 7.19168H15.0849V7.19164ZM8.92303 6.00004V4.48707H11.0771V6.00004H8.92303ZM11.7172 3.29547H8.28288C6.26272 3.29547 4.40932 2.50977 3.20721 1.19164H16.7929C15.5908 2.50973 13.7374 3.29547 11.7172 3.29547Z" fill="#D85829"/>
<path d="M10.0002 8.11719C7.3079 8.11719 5.11755 10.3076 5.11755 12.9999C5.11755 15.6922 7.30794 17.8826 10.0002 17.8826C12.6926 17.8826 14.8829 15.6922 14.8829 12.9999C14.8829 10.3075 12.6926 8.11719 10.0002 8.11719ZM10.0002 16.691C7.96497 16.691 6.30919 15.0352 6.30919 12.9999C6.30919 10.9646 7.96501 9.30883 10.0002 9.30883C12.0355 9.30883 13.6913 10.9646 13.6913 12.9999C13.6913 15.0351 12.0355 16.691 10.0002 16.691Z" fill="#D85829"/>
<path d="M10.4213 12.5769C10.1887 12.3442 9.81139 12.3442 9.57878 12.5769L8.14425 14.0114C7.91155 14.2441 7.91155 14.6213 8.14425 14.854C8.26058 14.9703 8.41308 15.0285 8.56554 15.0285C8.718 15.0285 8.8705 14.9703 8.98682 14.854L10.4214 13.4194C10.654 13.1868 10.654 12.8095 10.4213 12.5769Z" fill="#D85829"/>
</svg>
