<svg width="23" height="22" viewBox="0 0 23 22" fill="none" xmlns="http://www.w3.org/2000/svg">
<path fill-rule="evenodd" clip-rule="evenodd" d="M3.51739 10.5443C3.51739 8.85607 4.02591 7.20575 4.97865 5.80203C5.93138 4.39832 7.28554 3.30425 8.86988 2.65819C10.4542 2.01213 12.1976 1.8431 13.8795 2.17245C15.5614 2.50181 17.1064 3.31477 18.319 4.50854C19.5316 5.7023 20.3574 7.22325 20.6919 8.87904C21.0265 10.5348 20.8548 12.2511 20.1985 13.8108C19.5423 15.3706 18.431 16.7037 17.0051 17.6416C15.5792 18.5796 13.9028 19.0802 12.188 19.0802C10.5475 19.083 8.94031 18.6253 7.55482 17.7606C7.43158 17.6839 7.29305 17.634 7.14859 17.6145C7.00412 17.5949 6.85707 17.606 6.71734 17.6472L3.77955 18.5098L4.88632 15.9621C4.95065 15.8137 4.97775 15.6524 4.96532 15.4915C4.95289 15.3307 4.9013 15.1752 4.81492 15.0382C3.96411 13.6891 3.51459 12.1322 3.51739 10.5443ZM12.188 0C6.27259 0 1.47726 4.72084 1.47726 10.5443C1.47726 12.3901 1.95975 14.1274 2.80844 15.6387L1.04883 19.6897C0.972669 19.8652 0.948876 20.0584 0.980234 20.2467C1.01159 20.4351 1.0968 20.6107 1.22589 20.753C1.35497 20.8954 1.52259 20.9986 1.7091 21.0506C1.89562 21.1025 2.09331 21.1011 2.27903 21.0464L6.86933 19.6988C8.48821 20.6121 10.3221 21.0913 12.188 21.0886C18.1033 21.0886 22.8987 16.3678 22.8987 10.5443C22.8987 4.72084 18.1033 0 12.188 0ZM14.527 12.7355L13.1856 13.6654C12.4465 13.2468 11.7679 12.7324 11.1679 12.136C10.5238 11.5027 9.96681 10.789 9.51131 10.0131L10.3631 9.30108C10.5405 9.15284 10.6612 8.94931 10.705 8.72426C10.7488 8.49922 10.7131 8.2662 10.6038 8.06388L9.51845 6.05544C9.44622 5.92206 9.34434 5.80645 9.22041 5.71723C9.09647 5.628 8.95367 5.56748 8.80266 5.54016C8.65165 5.51284 8.49632 5.51943 8.34826 5.55944C8.2002 5.59946 8.06322 5.67186 7.94755 5.77125L7.62521 6.04741C6.85097 6.7122 6.39296 7.80479 6.77243 8.91144C7.38295 10.6619 8.39322 12.2512 9.72552 13.557C11.5749 15.3776 13.4539 16.0946 14.5535 16.3738C15.4389 16.5977 16.2764 16.2975 16.867 15.8235L17.4699 15.3395C17.597 15.2374 17.6972 15.1067 17.7621 14.9584C17.827 14.8102 17.8546 14.6487 17.8426 14.4876C17.8305 14.3266 17.7793 14.1708 17.6931 14.0335C17.6069 13.8961 17.4883 13.7812 17.3475 13.6986L15.6358 12.6943C15.4665 12.5949 15.2716 12.5459 15.0747 12.5532C14.8777 12.5605 14.6871 12.6238 14.526 12.7355H14.527Z" fill="#13334A"/>
</svg>
